<svg width="70" height="17" viewBox="0 0 70 17" fill="none" xmlns="http://www.w3.org/2000/svg">
<path d="M5.82 16.12C4.76667 16.12 3.95333 15.82 3.38 15.22C2.82 14.62 2.54 13.7733 2.54 12.68V7H0.58V5.22H0.98C1.46 5.22 1.84 5.07333 2.12 4.78C2.4 4.48667 2.54 4.1 2.54 3.62V2.74H4.4V5.22H6.82V7H4.4V12.62C4.4 12.98 4.45333 13.2933 4.56 13.56C4.68 13.8267 4.87333 14.04 5.14 14.2C5.40667 14.3467 5.76 14.42 6.2 14.42C6.29333 14.42 6.40667 14.4133 6.54 14.4C6.68667 14.3867 6.82 14.3733 6.94 14.36V16C6.76667 16.04 6.57333 16.0667 6.36 16.08C6.14667 16.1067 5.96667 16.12 5.82 16.12ZM8.96969 16V5.22H10.7897V7.2L10.5897 6.92C10.843 6.30667 11.2297 5.85333 11.7497 5.56C12.2697 5.25333 12.903 5.1 13.6497 5.1H14.3097V6.86H13.3697C12.6097 6.86 11.9964 7.1 11.5297 7.58C11.063 8.04667 10.8297 8.71333 10.8297 9.58V16H8.96969ZM18.7219 16.24C18.0152 16.24 17.3885 16.1133 16.8419 15.86C16.3085 15.5933 15.8885 15.2333 15.5819 14.78C15.2752 14.3133 15.1219 13.78 15.1219 13.18C15.1219 12.6067 15.2419 12.0933 15.4819 11.64C15.7352 11.1733 16.1219 10.78 16.6419 10.46C17.1752 10.14 17.8419 9.91333 18.6419 9.78L22.6419 9.12V10.68L19.0619 11.28C18.3685 11.4 17.8619 11.62 17.5419 11.94C17.2352 12.26 17.0819 12.6533 17.0819 13.12C17.0819 13.56 17.2552 13.9267 17.6019 14.22C17.9619 14.5133 18.4085 14.66 18.9419 14.66C19.6219 14.66 20.2085 14.52 20.7019 14.24C21.2085 13.9467 21.6019 13.5533 21.8819 13.06C22.1752 12.5667 22.3219 12.02 22.3219 11.42V8.68C22.3219 8.09333 22.1019 7.62 21.6619 7.26C21.2352 6.88667 20.6685 6.7 19.9619 6.7C19.3485 6.7 18.8019 6.86 18.3219 7.18C17.8552 7.48667 17.5085 7.9 17.2819 8.42L15.6619 7.58C15.8619 7.08667 16.1819 6.64667 16.6219 6.26C17.0619 5.86 17.5752 5.54667 18.1619 5.32C18.7485 5.09333 19.3619 4.98 20.0019 4.98C20.8285 4.98 21.5552 5.14 22.1819 5.46C22.8085 5.76667 23.2952 6.2 23.6419 6.76C24.0019 7.30667 24.1819 7.94667 24.1819 8.68V16H22.3619V13.96L22.7019 14.08C22.4752 14.5067 22.1685 14.88 21.7819 15.2C21.3952 15.52 20.9419 15.7733 20.4219 15.96C19.9019 16.1467 19.3352 16.24 18.7219 16.24ZM31.6658 16.24C30.6124 16.24 29.6724 15.9933 28.8458 15.5C28.0324 15.0067 27.3924 14.3333 26.9258 13.48C26.4591 12.6267 26.2258 11.6667 26.2258 10.6C26.2258 9.52 26.4591 8.56 26.9258 7.72C27.3924 6.88 28.0324 6.21333 28.8458 5.72C29.6724 5.22667 30.6124 4.98 31.6658 4.98C32.3724 4.98 33.0324 5.10667 33.6458 5.36C34.2591 5.61333 34.7991 5.95333 35.2658 6.38C35.7324 6.80667 36.0724 7.30667 36.2858 7.88L34.6258 8.68C34.3724 8.12 33.9858 7.66667 33.4658 7.32C32.9458 6.96 32.3458 6.78 31.6658 6.78C31.0124 6.78 30.4191 6.94667 29.8858 7.28C29.3658 7.61333 28.9524 8.06667 28.6458 8.64C28.3391 9.21333 28.1858 9.87333 28.1858 10.62C28.1858 11.34 28.3391 11.9933 28.6458 12.58C28.9524 13.1533 29.3658 13.6067 29.8858 13.94C30.4191 14.2733 31.0124 14.44 31.6658 14.44C32.3458 14.44 32.9458 14.2667 33.4658 13.92C33.9858 13.56 34.3724 13.0867 34.6258 12.5L36.2858 13.34C36.0724 13.9 35.7324 14.4 35.2658 14.84C34.7991 15.2667 34.2591 15.6067 33.6458 15.86C33.0324 16.1133 32.3724 16.24 31.6658 16.24ZM38.3166 16V0.859999H40.1766V11.24L39.4166 11.06L45.1366 5.22H47.5166L43.3766 9.56L47.7966 16H45.5966L41.5566 10.16L42.7166 10.1L39.5766 13.38L40.1766 12.02V16H38.3166ZM55.2859 16.24C54.5793 16.24 53.9526 16.1133 53.4059 15.86C52.8726 15.5933 52.4526 15.2333 52.1459 14.78C51.8393 14.3133 51.6859 13.78 51.6859 13.18C51.6859 12.6067 51.8059 12.0933 52.0459 11.64C52.2993 11.1733 52.6859 10.78 53.2059 10.46C53.7393 10.14 54.4059 9.91333 55.2059 9.78L59.2059 9.12V10.68L55.6259 11.28C54.9326 11.4 54.4259 11.62 54.1059 11.94C53.7993 12.26 53.6459 12.6533 53.6459 13.12C53.6459 13.56 53.8193 13.9267 54.1659 14.22C54.5259 14.5133 54.9726 14.66 55.5059 14.66C56.1859 14.66 56.7726 14.52 57.2659 14.24C57.7726 13.9467 58.1659 13.5533 58.4459 13.06C58.7393 12.5667 58.8859 12.02 58.8859 11.42V8.68C58.8859 8.09333 58.6659 7.62 58.2259 7.26C57.7993 6.88667 57.2326 6.7 56.5259 6.7C55.9126 6.7 55.3659 6.86 54.8859 7.18C54.4193 7.48667 54.0726 7.9 53.8459 8.42L52.2259 7.58C52.4259 7.08667 52.7459 6.64667 53.1859 6.26C53.6259 5.86 54.1393 5.54667 54.7259 5.32C55.3126 5.09333 55.9259 4.98 56.5659 4.98C57.3926 4.98 58.1193 5.14 58.7459 5.46C59.3726 5.76667 59.8593 6.2 60.2059 6.76C60.5659 7.30667 60.7459 7.94667 60.7459 8.68V16H58.9259V13.96L59.2659 14.08C59.0393 14.5067 58.7326 14.88 58.3459 15.2C57.9593 15.52 57.5059 15.7733 56.9859 15.96C56.4659 16.1467 55.8993 16.24 55.2859 16.24ZM63.2298 16V0.859999H65.0898V16H63.2298ZM67.5759 16V0.859999H69.4359V16H67.5759Z" fill="url(#paint0_linear_19_72)"/>
<defs>
<linearGradient id="paint0_linear_19_72" x1="0" y1="-5" x2="71" y2="16" gradientUnits="userSpaceOnUse">
<stop stop-color="#FBB700"/>
<stop offset="1" stop-color="#279500"/>
</linearGradient>
</defs>
</svg>
