<svg width="40" height="40" viewBox="0 0 40 40" fill="none" xmlns="http://www.w3.org/2000/svg">
<g opacity="0.6">
<circle cx="20" cy="20" r="20" fill="#1B1B1B"/>
<path fill-rule="evenodd" clip-rule="evenodd" d="M24.6261 13.2653L21.3263 13.7367C20.8222 13.8087 20.4103 14.049 20.1162 14.3811L12.4167 22.0806C11.6357 22.8616 11.6357 24.1279 12.4167 24.909L15.2452 27.7374C16.0263 28.5185 17.2925 28.5185 18.0736 27.7374L25.773 20.038C26.1051 19.7439 26.3454 19.332 26.4174 18.8279L26.8888 15.528C27.0775 14.2081 25.946 13.0767 24.6261 13.2653ZM22.3162 17.8379C22.7067 18.2284 23.3399 18.2285 23.7305 17.8379C24.121 17.4474 24.1209 16.8142 23.7305 16.4237C23.34 16.0332 22.7068 16.0332 22.3162 16.4237C21.9257 16.8142 21.9257 17.4474 22.3162 17.8379Z" fill="white"/>
</g>
</svg>
