<svg width="40" height="40" viewBox="0 0 40 40" fill="none" xmlns="http://www.w3.org/2000/svg">
<g opacity="0.6">
<circle cx="20" cy="20" r="20" fill="#1B1B1B"/>
<path fill-rule="evenodd" clip-rule="evenodd" d="M22 16C22 18.2091 20.2091 20 18 20C15.7909 20 14 18.2091 14 16C14 13.7909 15.7909 12 18 12C20.2091 12 22 13.7909 22 16ZM18 21C14.134 21 11 23.2386 11 26C11 27.1046 11.8954 28 13 28H23C24.1046 28 25 27.1046 25 26C25 23.2386 21.866 21 18 21ZM26 14C26.5523 14 27 14.4477 27 15V16H28C28.5523 16 29 16.4477 29 17C29 17.5523 28.5523 18 28 18H27V19C27 19.5523 26.5523 20 26 20C25.4477 20 25 19.5523 25 19V18H24C23.4477 18 23 17.5523 23 17C23 16.4477 23.4477 16 24 16H25V15C25 14.4477 25.4477 14 26 14Z" fill="white"/>
</g>
</svg>
