<svg width="40" height="40" viewBox="0 0 40 40" fill="none" xmlns="http://www.w3.org/2000/svg">
<g opacity="0.6">
<circle cx="20" cy="20" r="20" fill="#1B1B1B"/>
<path fill-rule="evenodd" clip-rule="evenodd" d="M12 14C12 11.7909 13.7909 10 16 10H22V14C22 16.2091 23.7909 18 26 18H28V26C28 28.2091 26.2091 30 24 30H16C13.7909 30 12 28.2091 12 26V14ZM16 19C15.4477 19 15 19.4477 15 20C15 20.5523 15.4477 21 16 21H18C18.5523 21 19 20.5523 19 20C19 19.4477 18.5523 19 18 19H16ZM16 23C15.4477 23 15 23.4477 15 24C15 24.5523 15.4477 25 16 25H20C20.5523 25 21 24.5523 21 24C21 23.4477 20.5523 23 20 23H16ZM24.6818 12.1988L24.5509 14.1629C24.5106 14.7666 25.0115 15.2674 25.6152 15.2272L27.5792 15.0962C28.4365 15.0391 28.8274 13.9989 28.2198 13.3913L26.3867 11.5582C25.7792 10.9507 24.7389 11.3415 24.6818 12.1988Z" fill="white"/>
</g>
</svg>
