<svg width="32" height="32" viewBox="0 0 32 32" fill="none" xmlns="http://www.w3.org/2000/svg">
<circle cx="16" cy="16" r="16" fill="url(#pattern0)"/>

<g clip-path="url(#clip0_1_2)">
<path d="M149.85 221.667C170.07 221.667 186.395 207.289 186.395 189.616H113.455C113.455 207.289 129.631 221.667 149.85 221.667Z" fill="#D70F64"/>
<path d="M273.115 68.8967C281.353 61.7074 286.745 51.2232 286.745 39.2411C286.745 17.6735 269.221 0.14977 247.504 0.14977C233.575 0.14977 221.443 7.33899 214.553 18.1228C195.082 8.68697 173.215 3.29505 150.15 3.29505C127.084 3.29505 105.217 8.53719 85.7464 17.973C78.7069 7.18921 66.7249 -5.31284e-06 52.7958 -5.31284e-06C31.2282 -5.31284e-06 13.5547 17.5237 13.5547 39.0914C13.5547 50.9236 18.7968 61.5577 27.0344 68.5971C11.0085 92.2616 1.57264 120.869 1.57264 151.573C1.57264 233.5 68.2227 300 150 300C231.777 300 298.427 233.5 298.427 151.573C298.577 121.168 289.141 92.5612 273.115 68.8967ZM150.15 288.767C74.663 288.767 13.2551 227.359 13.2551 151.872C13.2551 123.415 21.9421 97.0544 36.7698 75.1872C50.2496 55.4169 68.8218 39.2411 90.3894 28.7569C108.362 19.9201 128.582 14.9775 150 14.9775C171.418 14.9775 191.638 19.9201 209.76 28.7569C231.478 39.2411 249.9 55.4169 263.38 75.1872C278.208 97.0544 286.895 123.415 286.895 151.872C287.044 227.359 225.637 288.767 150.15 288.767Z" fill="#D70F64"/>
<path d="M149.85 180.479C152.097 181.078 175.612 173.14 175.612 162.057C175.612 155.916 156.59 154.718 149.85 154.718C143.26 154.718 124.089 155.916 124.089 162.057C124.089 173.14 147.604 181.078 149.85 180.479Z" fill="#D70F64"/>
<path d="M236.121 87.6186C223.24 79.0814 194.633 73.989 183.55 88.8168C183.55 88.8168 169.471 103.944 183.25 119.67C197.179 135.397 207.813 150.075 210.959 162.806C214.104 175.537 219.196 180.779 229.531 180.929C239.865 180.929 259.636 165.202 262.182 139.89C264.728 114.578 249.002 96.006 236.121 87.6186ZM206.615 119.97C202.272 119.97 198.827 116.525 198.827 112.182C198.827 107.838 202.421 104.393 206.615 104.393C210.959 104.393 214.403 107.838 214.403 112.182C214.254 116.375 210.809 119.97 206.615 119.97Z" fill="#D70F64"/>
<path d="M116.151 88.667C104.918 73.989 76.3105 78.9316 63.5796 87.4688C50.699 96.006 34.9725 114.428 37.5187 139.74C39.9151 165.052 59.8352 180.779 70.1697 180.779C80.5042 180.779 85.5966 175.537 88.7419 162.656C91.8872 149.925 102.671 135.247 116.45 119.521C130.23 103.794 116.151 88.667 116.151 88.667ZM95.4818 119.97C91.1383 119.97 87.6935 116.525 87.6935 112.182C87.6935 107.838 91.1383 104.393 95.4818 104.393C99.8253 104.393 103.27 107.838 103.27 112.182C103.12 116.375 99.6755 119.97 95.4818 119.97Z" fill="#D70F64"/>
</g>
<defs>
<clipPath id="clip0_1_2">
<rect width="100" height="100" fill="white"/>
</clipPath>
</defs>
</svg>
