<svg width="20" height="20" viewBox="0 0 20 20" fill="none" xmlns="http://www.w3.org/2000/svg">
<path d="M7.775 19.65H1.5C1.1 19.65 0.75 19.5 0.45 19.2C0.15 18.9 0 18.55 0 18.15V3.6C0 3.2 0.129167 2.85 0.3875 2.55C0.645833 2.25 0.866667 2.1 1.05 2.1H6.1C6.21667 1.51666 6.50417 1.0375 6.9625 0.662498C7.42083 0.287498 7.95 0.0999985 8.55 0.0999985C9.15 0.0999985 9.67917 0.287498 10.1375 0.662498C10.5958 1.0375 10.8833 1.51666 11 2.1H16.05C16.45 2.1 16.8 2.25 17.1 2.55C17.4 2.85 17.55 3.2 17.55 3.6V8.675H16.05V3.6H13.4V6.85H4.15V3.6H1.5V18.15H7.775V19.65ZM12.5 19.025L8.5 15.025L9.575 13.95L12.5 16.875L18.475 10.9L19.55 11.975L12.5 19.025ZM9 3.5C9.28333 3.5 9.52083 3.40416 9.7125 3.2125C9.90417 3.02083 10 2.78333 10 2.5C10 2.21666 9.90417 1.97916 9.7125 1.7875C9.52083 1.59583 9.28333 1.5 9 1.5C8.71667 1.5 8.47917 1.59583 8.2875 1.7875C8.09583 1.97916 8 2.21666 8 2.5C8 2.78333 8.09583 3.02083 8.2875 3.2125C8.47917 3.40416 8.71667 3.5 9 3.5Z" fill="#279500"/>
</svg>
