<svg width="99" height="25" viewBox="0 0 99 25" fill="none" xmlns="http://www.w3.org/2000/svg">
<path d="M5.82 21.12C4.76667 21.12 3.95333 20.82 3.38 20.22C2.82 19.62 2.54 18.7733 2.54 17.68V12H0.58V10.22H0.98C1.46 10.22 1.84 10.0733 2.12 9.78C2.4 9.48667 2.54 9.1 2.54 8.62V7.74H4.4V10.22H6.82V12H4.4V17.62C4.4 17.98 4.45333 18.2933 4.56 18.56C4.68 18.8267 4.87333 19.04 5.14 19.2C5.40667 19.3467 5.76 19.42 6.2 19.42C6.29333 19.42 6.40667 19.4133 6.54 19.4C6.68667 19.3867 6.82 19.3733 6.94 19.36V21C6.76667 21.04 6.57333 21.0667 6.36 21.08C6.14667 21.1067 5.96667 21.12 5.82 21.12ZM8.96969 21V10.22H10.7897V12.2L10.5897 11.92C10.843 11.3067 11.2297 10.8533 11.7497 10.56C12.2697 10.2533 12.903 10.1 13.6497 10.1H14.3097V11.86H13.3697C12.6097 11.86 11.9964 12.1 11.5297 12.58C11.063 13.0467 10.8297 13.7133 10.8297 14.58V21H8.96969ZM18.7219 21.24C18.0152 21.24 17.3885 21.1133 16.8419 20.86C16.3085 20.5933 15.8885 20.2333 15.5819 19.78C15.2752 19.3133 15.1219 18.78 15.1219 18.18C15.1219 17.6067 15.2419 17.0933 15.4819 16.64C15.7352 16.1733 16.1219 15.78 16.6419 15.46C17.1752 15.14 17.8419 14.9133 18.6419 14.78L22.6419 14.12V15.68L19.0619 16.28C18.3685 16.4 17.8619 16.62 17.5419 16.94C17.2352 17.26 17.0819 17.6533 17.0819 18.12C17.0819 18.56 17.2552 18.9267 17.6019 19.22C17.9619 19.5133 18.4085 19.66 18.9419 19.66C19.6219 19.66 20.2085 19.52 20.7019 19.24C21.2085 18.9467 21.6019 18.5533 21.8819 18.06C22.1752 17.5667 22.3219 17.02 22.3219 16.42V13.68C22.3219 13.0933 22.1019 12.62 21.6619 12.26C21.2352 11.8867 20.6685 11.7 19.9619 11.7C19.3485 11.7 18.8019 11.86 18.3219 12.18C17.8552 12.4867 17.5085 12.9 17.2819 13.42L15.6619 12.58C15.8619 12.0867 16.1819 11.6467 16.6219 11.26C17.0619 10.86 17.5752 10.5467 18.1619 10.32C18.7485 10.0933 19.3619 9.98 20.0019 9.98C20.8285 9.98 21.5552 10.14 22.1819 10.46C22.8085 10.7667 23.2952 11.2 23.6419 11.76C24.0019 12.3067 24.1819 12.9467 24.1819 13.68V21H22.3619V18.96L22.7019 19.08C22.4752 19.5067 22.1685 19.88 21.7819 20.2C21.3952 20.52 20.9419 20.7733 20.4219 20.96C19.9019 21.1467 19.3352 21.24 18.7219 21.24ZM31.6658 21.24C30.6124 21.24 29.6724 20.9933 28.8458 20.5C28.0324 20.0067 27.3924 19.3333 26.9258 18.48C26.4591 17.6267 26.2258 16.6667 26.2258 15.6C26.2258 14.52 26.4591 13.56 26.9258 12.72C27.3924 11.88 28.0324 11.2133 28.8458 10.72C29.6724 10.2267 30.6124 9.98 31.6658 9.98C32.3724 9.98 33.0324 10.1067 33.6458 10.36C34.2591 10.6133 34.7991 10.9533 35.2658 11.38C35.7324 11.8067 36.0724 12.3067 36.2858 12.88L34.6258 13.68C34.3724 13.12 33.9858 12.6667 33.4658 12.32C32.9458 11.96 32.3458 11.78 31.6658 11.78C31.0124 11.78 30.4191 11.9467 29.8858 12.28C29.3658 12.6133 28.9524 13.0667 28.6458 13.64C28.3391 14.2133 28.1858 14.8733 28.1858 15.62C28.1858 16.34 28.3391 16.9933 28.6458 17.58C28.9524 18.1533 29.3658 18.6067 29.8858 18.94C30.4191 19.2733 31.0124 19.44 31.6658 19.44C32.3458 19.44 32.9458 19.2667 33.4658 18.92C33.9858 18.56 34.3724 18.0867 34.6258 17.5L36.2858 18.34C36.0724 18.9 35.7324 19.4 35.2658 19.84C34.7991 20.2667 34.2591 20.6067 33.6458 20.86C33.0324 21.1133 32.3724 21.24 31.6658 21.24ZM38.3166 21V5.86H40.1766V16.24L39.4166 16.06L45.1366 10.22H47.5166L43.3766 14.56L47.7966 21H45.5966L41.5566 15.16L42.7166 15.1L39.5766 18.38L40.1766 17.02V21H38.3166ZM55.2859 21.24C54.5793 21.24 53.9526 21.1133 53.4059 20.86C52.8726 20.5933 52.4526 20.2333 52.1459 19.78C51.8393 19.3133 51.6859 18.78 51.6859 18.18C51.6859 17.6067 51.8059 17.0933 52.0459 16.64C52.2993 16.1733 52.6859 15.78 53.2059 15.46C53.7393 15.14 54.4059 14.9133 55.2059 14.78L59.2059 14.12V15.68L55.6259 16.28C54.9326 16.4 54.4259 16.62 54.1059 16.94C53.7993 17.26 53.6459 17.6533 53.6459 18.12C53.6459 18.56 53.8193 18.9267 54.1659 19.22C54.5259 19.5133 54.9726 19.66 55.5059 19.66C56.1859 19.66 56.7726 19.52 57.2659 19.24C57.7726 18.9467 58.1659 18.5533 58.4459 18.06C58.7393 17.5667 58.8859 17.02 58.8859 16.42V13.68C58.8859 13.0933 58.6659 12.62 58.2259 12.26C57.7993 11.8867 57.2326 11.7 56.5259 11.7C55.9126 11.7 55.3659 11.86 54.8859 12.18C54.4193 12.4867 54.0726 12.9 53.8459 13.42L52.2259 12.58C52.4259 12.0867 52.7459 11.6467 53.1859 11.26C53.6259 10.86 54.1393 10.5467 54.7259 10.32C55.3126 10.0933 55.9259 9.98 56.5659 9.98C57.3926 9.98 58.1193 10.14 58.7459 10.46C59.3726 10.7667 59.8593 11.2 60.2059 11.76C60.5659 12.3067 60.7459 12.9467 60.7459 13.68V21H58.9259V18.96L59.2659 19.08C59.0393 19.5067 58.7326 19.88 58.3459 20.2C57.9593 20.52 57.5059 20.7733 56.9859 20.96C56.4659 21.1467 55.8993 21.24 55.2859 21.24ZM63.2298 21V5.86H65.0898V21H63.2298ZM67.5759 21V5.86H69.4359V21H67.5759Z" fill="url(#paint0_linear_189_464)"/>
<path d="M80.376 2.6C80.5484 2.50083 80.7531 2.47419 80.9452 2.52595C81.1372 2.57771 81.3008 2.70362 81.4 2.876L86.365 11.5H88.635L84.1 3.624C84.0043 3.45182 83.9802 3.2489 84.0329 3.05909C84.0855 2.86928 84.2108 2.70782 84.3815 2.60958C84.5523 2.51134 84.7548 2.48421 84.9454 2.53406C85.1359 2.58391 85.2992 2.70674 85.4 2.876L90.365 11.5H96.298C96.686 11.5 97 11.814 97 12.202V12.5C97.0012 13.5175 96.8467 14.5292 96.542 15.5H77.458C77.1535 14.5291 76.9991 13.5175 77 12.5V12.202C77 11.814 77.314 11.5 77.702 11.5H84.635L80.1 3.624C80.0008 3.4516 79.9742 3.24687 80.026 3.05484C80.0777 2.86281 80.2036 2.6992 80.376 2.6ZM78.067 17C78.9005 18.6541 80.1771 20.0443 81.7544 21.0154C83.3317 21.9865 85.1477 22.5005 87 22.5C88.8523 22.5005 90.6683 21.9865 92.2456 21.0154C93.8229 20.0443 95.0995 18.6541 95.933 17H78.067Z" fill="#FBB700"/>
<defs>
<linearGradient id="paint0_linear_189_464" x1="0" y1="0" x2="71" y2="21" gradientUnits="userSpaceOnUse">
<stop stop-color="#FBB700"/>
<stop offset="1" stop-color="#279500"/>
</linearGradient>
</defs>
</svg>
