<svg width="18" height="20" viewBox="0 0 18 20" fill="none" xmlns="http://www.w3.org/2000/svg">
<path d="M9 16C7.9 16 6.85 16.1792 5.85 16.5375C4.85 16.8958 3.9 17.4583 3 18.225V18.5H15V18.375C14.1667 17.625 13.2292 17.0417 12.1875 16.625C11.1458 16.2083 10.0833 16 9 16ZM1.5 17.5C2.46667 16.55 3.59583 15.8125 4.8875 15.2875C6.17917 14.7625 7.55 14.5 9 14.5C10.45 14.5 11.8167 14.7625 13.1 15.2875C14.3833 15.8125 15.5167 16.55 16.5 17.5V3H1.5V17.5ZM9 12.15C8.05 12.15 7.24583 11.8208 6.5875 11.1625C5.92917 10.5042 5.6 9.7 5.6 8.75C5.6 7.8 5.92917 6.99583 6.5875 6.3375C7.24583 5.67917 8.05 5.35 9 5.35C9.95 5.35 10.7542 5.67917 11.4125 6.3375C12.0708 6.99583 12.4 7.8 12.4 8.75C12.4 9.7 12.0708 10.5042 11.4125 11.1625C10.7542 11.8208 9.95 12.15 9 12.15ZM9 10.65C9.53333 10.65 9.98333 10.4667 10.35 10.1C10.7167 9.73333 10.9 9.28333 10.9 8.75C10.9 8.21667 10.7167 7.76667 10.35 7.4C9.98333 7.03333 9.53333 6.85 9 6.85C8.46667 6.85 8.01667 7.03333 7.65 7.4C7.28333 7.76667 7.1 8.21667 7.1 8.75C7.1 9.28333 7.28333 9.73333 7.65 10.1C8.01667 10.4667 8.46667 10.65 9 10.65ZM1.5 20C1.1 20 0.75 19.85 0.45 19.55C0.15 19.25 0 18.9 0 18.5V3C0 2.6 0.15 2.25 0.45 1.95C0.75 1.65 1.1 1.5 1.5 1.5H3.125V0H4.75V1.5H13.25V0H14.875V1.5H16.5C16.9 1.5 17.25 1.65 17.55 1.95C17.85 2.25 18 2.6 18 3V18.5C18 18.9 17.85 19.25 17.55 19.55C17.25 19.85 16.9 20 16.5 20H1.5ZM9 18.5H15H3H9Z" fill="#279500"/>
</svg>
