<svg width="40" height="40" viewBox="0 0 40 40" fill="none" xmlns="http://www.w3.org/2000/svg">
<g opacity="0.6">
<circle cx="20" cy="20" r="20" fill="#1B1B1B"/>
<path fill-rule="evenodd" clip-rule="evenodd" d="M13 11C11.8954 11 11 11.8954 11 13V27C11 28.1046 11.8954 29 13 29H27C28.1046 29 29 28.1046 29 27V13C29 11.8954 28.1046 11 27 11H13ZM16 21C16 20.4477 15.5523 20 15 20C14.4477 20 14 20.4477 14 21V25C14 25.5523 14.4477 26 15 26C15.5523 26 16 25.5523 16 25V21ZM20 17C20.5523 17 21 17.4477 21 18V25C21 25.5523 20.5523 26 20 26C19.4477 26 19 25.5523 19 25V18C19 17.4477 19.4477 17 20 17ZM26 15C26 14.4477 25.5523 14 25 14C24.4477 14 24 14.4477 24 15V25C24 25.5523 24.4477 26 25 26C25.5523 26 26 25.5523 26 25V15Z" fill="white"/>
</g>
</svg>
