<svg width="18" height="18" viewBox="0 0 18 18" fill="none" xmlns="http://www.w3.org/2000/svg">
<path d="M1 8.25V8.75H1.5H6.75H7.25V8.25V1.5V1H6.75H1.5H1V1.5V8.25ZM10.75 16.5V17H11.25H16.5H17V16.5V9.75V9.25H16.5H11.25H10.75V9.75V16.5ZM10.75 5.25V5.75H11.25H16.5H17V5.25V1.5V1H16.5H11.25H10.75V1.5V5.25ZM1 16.5V17H1.5H6.75H7.25V16.5V12.75V12.25H6.75H1.5H1V12.75V16.5ZM10.25 6.25V0.5H17.5V6.25H10.25ZM0.5 9.25V0.5H7.75V9.25H0.5ZM10.25 17.5V8.75H17.5V17.5H10.25ZM0.5 17.5V11.75H7.75V17.5H0.5Z" fill="#279500" stroke="#279500"/>
</svg>
